{
    "asset" : {
        "generator" : "Khronos glTF Blender I/O v1.2.75",
        "version" : "2.0"
    },
    "scene" : 0,
    "scenes" : [
        {
            "name" : "Scene",
            "nodes" : [
                0
            ]
        }
    ],
    "nodes" : [
        {
            "mesh" : 0,
            "name" : "Steropsis_PART_2sm",
            "rotation" : [
                0.7071068286895752,
                0,
                0,
                0.7071067094802856
            ]
        }
    ],
    "materials" : [
        {
            "doubleSided" : true,
            "emissiveFactor" : [
                0,
                0,
                0
            ],
            "name" : "initialShadingGroup.004",
            "pbrMetallicRoughness" : {
                "baseColorFactor" : [
                    0.800000011920929,
                    0.800000011920929,
                    0.800000011920929,
                    1
                ],
                "metallicFactor" : 0,
                "roughnessFactor" : 0.5
            }
        }
    ],
    "meshes" : [
        {
            "name" : "Steropsis_PART_2sm",
            "primitives" : [
                {
                    "attributes" : {
                        "POSITION" : 0,
                        "NORMAL" : 1,
                        "TEXCOORD_0" : 2
                    },
                    "indices" : 3,
                    "material" : 0
                }
            ]
        }
    ],
    "accessors" : [
        {
            "bufferView" : 0,
            "componentType" : 5126,
            "count" : 1435,
            "max" : [
                0.3193552494049072,
                0.7608600854873657,
                0.29269909858703613
            ],
            "min" : [
                -0.6385787129402161,
                -0.6946959495544434,
                -0.8025789260864258
            ],
            "type" : "VEC3"
        },
        {
            "bufferView" : 1,
            "componentType" : 5126,
            "count" : 1435,
            "type" : "VEC3"
        },
        {
            "bufferView" : 2,
            "componentType" : 5126,
            "count" : 1435,
            "type" : "VEC2"
        },
        {
            "bufferView" : 3,
            "componentType" : 5123,
            "count" : 6252,
            "type" : "SCALAR"
        }
    ],
    "bufferViews" : [
        {
            "buffer" : 0,
            "byteLength" : 17220,
            "byteOffset" : 0
        },
        {
            "buffer" : 0,
            "byteLength" : 17220,
            "byteOffset" : 17220
        },
        {
            "buffer" : 0,
            "byteLength" : 11480,
            "byteOffset" : 34440
        },
        {
            "buffer" : 0,
            "byteLength" : 12504,
            "byteOffset" : 45920
        }
    ],
    "buffers" : [
        {
            "byteLength" : 58424,
            "uri" : "Stereopsis_p2.bin"
        }
    ]
}
