# This file uses centimeters as units for non-parametric coordinates.

mtllib Environment_moulding_pillar2.mtl
g default
v 7.791483 5.230175 10.660834
v 8.523970 5.808020 11.393321
v 5.755670 5.808020 11.443960
v 6.488156 5.230175 10.711473
v 8.087135 5.650639 10.956487
v 6.192504 5.650639 11.007126
v 7.791483 5.446280 10.660834
v 6.488156 5.446280 10.711473
v 8.083814 5.497956 10.953164
v 6.195826 5.497956 11.003804
v 8.550546 5.737551 11.419896
v 5.729095 5.737551 11.470535
v 8.550546 5.768087 11.419896
v 5.729095 5.768087 11.470535
vt 0.000000 0.000000
vt 1.000000 0.000000
vt 1.000000 1.000000
vt 0.000000 1.000000
vt 0.500000 0.000000
vt 0.500000 1.000000
vt 0.166667 0.000000
vt 0.166667 1.000000
vt 0.333333 0.000000
vt 0.333333 1.000000
vt 0.666667 0.000000
vt 0.666667 1.000000
vt 0.833333 0.000000
vt 0.833333 1.000000
vn 0.017204 0.298415 0.954281
vn 0.015082 0.553964 0.832404
vn 0.015082 0.553964 0.832404
vn 0.017218 0.295724 0.955118
vn 0.021987 -0.596740 0.802133
vn 0.008195 -0.940082 0.340849
vn 0.008105 -0.941280 0.337531
vn 0.022393 -0.574739 0.818030
vn 0.038824 0.000000 0.999246
vn 0.018589 -0.862128 0.506350
vn 0.018252 -0.867073 0.497847
vn 0.038824 0.000000 0.999246
vn 0.006406 -0.946715 0.322008
vn 0.006509 -0.944700 0.327872
g nurbsToPoly5 Pillar2
usemtl initialShadingGroup
f 13/13/1 2/2/2 3/3/3 14/14/4
f 9/9/5 5/5/6 6/6/7 10/10/8
f 1/1/9 7/7/10 8/8/11 4/4/12
f 7/7/10 9/9/5 10/10/8 8/8/11
f 5/5/6 11/11/13 12/12/14 6/6/7
f 11/11/13 13/13/1 14/14/4 12/12/14
g default
v 6.521804 5.230175 7.831502
v 5.789318 5.808020 7.099016
v 5.789318 5.808020 5.517109
v 6.521804 5.230175 6.249595
v 6.226152 5.650639 7.535851
v 6.226152 5.650639 5.953943
v 6.521804 5.446280 7.831502
v 6.521804 5.446280 6.249595
v 6.229474 5.497956 7.539173
v 6.229474 5.497956 5.957265
v 5.762742 5.737551 7.072441
v 5.762742 5.737551 5.490533
v 5.762742 5.768087 7.072441
v 5.762742 5.768087 5.490533
vt 0.000000 0.000000
vt 1.000000 0.000000
vt 1.000000 1.000000
vt 0.000000 1.000000
vt 0.500000 0.000000
vt 0.500000 1.000000
vt 0.166667 0.000000
vt 0.166667 1.000000
vt 0.333333 0.000000
vt 0.333333 1.000000
vt 0.666667 0.000000
vt 0.666667 1.000000
vt 0.833333 0.000000
vt 0.833333 1.000000
vn -0.921441 0.388519 0.000000
vn -0.832491 0.554039 0.000000
vn -0.832491 0.554039 0.000000
vn -0.954414 0.298486 0.000000
vn -0.459534 -0.888160 0.000000
vn -0.641542 -0.767088 0.000000
vn -0.373828 -0.927498 0.000000
vn -0.767755 -0.640743 0.000000
vn -1.000000 0.000000 0.000000
vn -0.853927 -0.520393 0.000000
vn -0.557316 -0.830301 0.000000
vn -1.000000 0.000000 0.000000
vn -0.225664 -0.974205 0.000000
vn -0.302962 -0.953003 0.000000
g Pillar2 nurbsToPoly6
usemtl initialShadingGroup
f 27/27/15 16/16/16 17/17/17 28/28/18
f 23/23/19 19/19/20 20/20/21 24/24/22
f 15/15/23 21/21/24 22/22/25 18/18/26
f 21/21/24 23/23/19 24/24/22 22/22/25
f 19/19/20 25/25/27 26/26/28 20/20/21
f 25/25/27 27/27/15 28/28/18 26/26/28
g default
v 5.789318 5.808020 7.099016
v 6.521804 5.230175 7.831502
v 4.892675 5.230175 7.855113
v 4.160189 5.808020 7.122627
v 6.226152 5.650639 7.535851
v 4.597023 5.650639 7.559461
v 5.762742 5.768087 7.072441
v 4.133614 5.768087 7.096051
v 5.762742 5.737551 7.072441
v 4.133614 5.737551 7.096051
v 6.229474 5.497956 7.539173
v 4.600345 5.497956 7.562783
v 6.521804 5.446280 7.831502
v 4.892675 5.446280 7.855113
vt 0.000000 0.000000
vt 1.000000 0.000000
vt 1.000000 1.000000
vt 0.000000 1.000000
vt 0.500000 0.000000
vt 0.500000 1.000000
vt 0.166667 0.000000
vt 0.166667 1.000000
vt 0.333333 0.000000
vt 0.333333 1.000000
vt 0.666667 0.000000
vt 0.666667 1.000000
vt 0.833333 0.000000
vt 0.833333 1.000000
vn -0.012272 -0.531876 -0.846734
vn -0.014491 0.000000 -0.999895
vn -0.014491 0.000000 -0.999895
vn -0.008022 -0.832812 -0.553498
vn -0.003230 -0.974848 -0.222846
vn -0.009143 -0.775838 -0.630867
vn -0.005366 -0.928903 -0.370285
vn -0.004305 -0.954852 -0.297051
vn -0.012010 0.559518 -0.828731
vn -0.013326 0.392767 -0.919541
vn -0.013807 0.303483 -0.952737
vn -0.012010 0.559518 -0.828731
vn -0.006606 -0.890054 -0.455808
vn -0.010990 -0.651773 -0.758334
g Pillar2 nurbsToPoly7
usemtl initialShadingGroup
f 41/41/29 30/30/30 31/31/31 42/42/32
f 37/37/33 33/33/34 34/34/35 38/38/36
f 29/29/37 35/35/38 36/36/39 32/32/40
f 35/35/38 37/37/33 38/38/36 36/36/39
f 33/33/34 39/39/41 40/40/42 34/34/35
f 39/39/41 41/41/29 42/42/32 40/40/42
g default
v 6.521804 5.230175 6.249595
v 5.789318 5.808020 5.517109
v 8.549290 5.808020 5.503875
v 7.816803 5.230175 6.236362
v 6.226152 5.650639 5.953943
v 8.112455 5.650639 5.940710
v 6.521804 5.446280 6.249595
v 7.816803 5.446280 6.236362
v 6.229474 5.497956 5.957265
v 8.109134 5.497956 5.944032
v 5.762742 5.737551 5.490533
v 8.575865 5.737551 5.477300
v 5.762742 5.768087 5.490533
v 8.575865 5.768087 5.477300
vt 0.000000 0.000000
vt 1.000000 0.000000
vt 1.000000 1.000000
vt 0.000000 1.000000
vt 0.500000 0.000000
vt 0.500000 1.000000
vt 0.166667 0.000000
vt 0.166667 1.000000
vt 0.333333 0.000000
vt 0.333333 1.000000
vt 0.666667 0.000000
vt 0.666667 1.000000
vt 0.833333 0.000000
vt 0.833333 1.000000
vn -0.004511 0.297461 -0.954723
vn -0.003954 0.554030 -0.832487
vn -0.003954 0.554030 -0.832487
vn -0.004512 0.296755 -0.954943
vn -0.005814 -0.588678 -0.808347
vn -0.002141 -0.940606 -0.339493
vn -0.002134 -0.940920 -0.338622
vn -0.005842 -0.582902 -0.812522
vn -0.010218 0.000000 -0.999948
vn -0.004852 -0.864308 -0.502939
vn -0.004829 -0.865606 -0.500702
vn -0.010218 0.000000 -0.999948
vn -0.001690 -0.945987 -0.324199
vn -0.001697 -0.945459 -0.325736
g Pillar2 nurbsToPoly8
usemtl initialShadingGroup
f 55/55/43 44/44/44 45/45/45 56/56/46
f 51/51/47 47/47/48 48/48/49 52/52/50
f 43/43/51 49/49/52 50/50/53 46/46/54
f 49/49/52 51/51/47 52/52/50 50/50/53
f 47/47/48 53/53/55 54/54/56 48/48/49
f 53/53/55 55/55/43 56/56/46 54/54/56
g default
v 7.816803 5.230175 6.236362
v 8.549290 5.808020 5.503875
v 8.549290 5.808020 7.099016
v 7.816803 5.230175 7.831502
v 8.112455 5.650639 5.940710
v 8.112455 5.650639 7.535851
v 7.816803 5.446280 6.236362
v 7.816803 5.446280 7.831502
v 8.109134 5.497956 5.944032
v 8.109134 5.497956 7.539173
v 8.575865 5.737551 5.477300
v 8.575865 5.737551 7.072441
v 8.575865 5.768087 5.477300
v 8.575865 5.768087 7.072441
vt 0.000000 0.000000
vt 1.000000 0.000000
vt 1.000000 1.000000
vt 0.000000 1.000000
vt 0.500000 0.000000
vt 0.500000 1.000000
vt 0.166667 0.000000
vt 0.166667 1.000000
vt 0.333333 0.000000
vt 0.333333 1.000000
vt 0.666667 0.000000
vt 0.666667 1.000000
vt 0.833333 0.000000
vt 0.833333 1.000000
vn 0.954419 0.298470 0.000000
vn 0.832507 0.554015 0.000000
vn 0.832507 0.554015 0.000000
vn 0.921449 0.388499 0.000000
vn 0.767753 -0.640746 0.000000
vn 0.373828 -0.927498 0.000000
vn 0.641541 -0.767088 0.000000
vn 0.459532 -0.888161 0.000000
vn 1.000000 0.000000 0.000000
vn 0.557315 -0.830301 0.000000
vn 0.853927 -0.520393 0.000000
vn 1.000000 0.000000 0.000000
vn 0.302963 -0.953002 0.000000
vn 0.225665 -0.974205 0.000000
g Pillar2 nurbsToPoly9
usemtl initialShadingGroup
f 69/69/57 58/58/58 59/59/59 70/70/60
f 65/65/61 61/61/62 62/62/63 66/66/64
f 57/57/65 63/63/66 64/64/67 60/60/68
f 63/63/66 65/65/61 66/66/64 64/64/67
f 61/61/62 67/67/69 68/68/70 62/62/63
f 67/67/69 69/69/57 70/70/60 68/68/70
g default
v 7.816803 5.230175 7.831502
v 8.549290 5.808020 7.099016
v 10.169750 5.808020 7.099016
v 9.437263 5.230175 7.831502
v 8.112455 5.650639 7.535851
v 9.732916 5.650639 7.535851
v 7.816803 5.446280 7.831502
v 9.437263 5.446280 7.831502
v 8.109134 5.497956 7.539173
v 9.729594 5.497956 7.539173
v 8.575865 5.737551 7.072441
v 10.196325 5.737551 7.072441
v 8.575865 5.768087 7.072441
v 10.196325 5.768087 7.072441
vt 0.000000 0.000000
vt 1.000000 0.000000
vt 1.000000 1.000000
vt 0.000000 1.000000
vt 0.500000 0.000000
vt 0.500000 1.000000
vt 0.166667 0.000000
vt 0.166667 1.000000
vt 0.333333 0.000000
vt 0.333333 1.000000
vt 0.666667 0.000000
vt 0.666667 1.000000
vt 0.833333 0.000000
vt 0.833333 1.000000
vn 0.000000 0.388513 -0.921443
vn 0.000000 0.554031 -0.832496
vn 0.000000 0.554031 -0.832496
vn 0.000000 0.298483 -0.954415
vn 0.000000 -0.888161 -0.459533
vn 0.000000 -0.767090 -0.641540
vn 0.000000 -0.927498 -0.373829
vn 0.000000 -0.640746 -0.767753
vn 0.000000 0.000000 -1.000000
vn 0.000000 -0.520391 -0.853928
vn 0.000000 -0.830301 -0.557316
vn 0.000000 0.000000 -1.000000
vn 0.000000 -0.974205 -0.225666
vn 0.000000 -0.953002 -0.302963
g Pillar2 nurbsToPoly10
usemtl initialShadingGroup
f 83/83/71 72/72/72 73/73/73 84/84/74
f 79/79/75 75/75/76 76/76/77 80/80/78
f 71/71/79 77/77/80 78/78/81 74/74/82
f 77/77/80 79/79/75 80/80/78 78/78/81
f 75/75/76 81/81/83 82/82/84 76/76/77
f 81/81/83 83/83/71 84/84/74 82/82/84
g default
v 9.437263 5.230175 7.831502
v 10.169750 5.808020 7.099016
v 10.195069 5.808020 9.848820
v 9.462584 5.230175 9.116333
v 9.732916 5.650639 7.535851
v 9.758235 5.650639 9.411985
v 9.437263 5.446280 7.831502
v 9.462584 5.446280 9.116333
v 9.729594 5.497956 7.539173
v 9.754913 5.497956 9.408663
v 10.196325 5.737551 7.072441
v 10.221645 5.737551 9.875395
v 10.196325 5.768087 7.072441
v 10.221645 5.768087 9.875395
vt 0.000000 0.000000
vt 1.000000 0.000000
vt 1.000000 1.000000
vt 0.000000 1.000000
vt 0.500000 0.000000
vt 0.500000 1.000000
vt 0.166667 0.000000
vt 0.166667 1.000000
vt 0.333333 0.000000
vt 0.333333 1.000000
vt 0.666667 0.000000
vt 0.666667 1.000000
vt 0.833333 0.000000
vt 0.833333 1.000000
vn 0.954595 0.297782 -0.008662
vn 0.832464 0.554027 -0.007592
vn 0.832464 0.554027 -0.007592
vn 0.955016 0.296428 -0.008665
vn 0.806631 -0.590951 -0.011163
vn 0.339741 -0.940510 -0.004119
vn 0.338068 -0.941113 -0.004096
vn 0.814654 -0.579837 -0.011266
vn 0.999806 0.000000 -0.019703
vn 0.503589 -0.863892 -0.009366
vn 0.499279 -0.866392 -0.009280
vn 0.999806 0.000000 -0.019703
vn 0.323594 -0.946191 -0.003241
vn 0.326547 -0.945175 -0.003267
g Pillar2 nurbsToPoly11
usemtl initialShadingGroup
f 97/97/85 86/86/86 87/87/87 98/98/88
f 93/93/89 89/89/90 90/90/91 94/94/92
f 85/85/93 91/91/94 92/92/95 88/88/96
f 91/91/94 93/93/89 94/94/92 92/92/95
f 89/89/90 95/95/97 96/96/98 90/90/91
f 95/95/97 97/97/85 98/98/88 96/96/98
g default
v 9.462584 5.230175 9.116333
v 10.195069 5.808020 9.848820
v 8.523970 5.808020 9.848820
v 7.791483 5.230175 9.116333
v 9.758235 5.650639 9.411985
v 8.087135 5.650639 9.411985
v 9.462584 5.446280 9.116333
v 7.791483 5.446280 9.116333
v 9.754913 5.497956 9.408663
v 8.083814 5.497956 9.408663
v 10.221645 5.737551 9.875395
v 8.550546 5.737551 9.875395
v 10.221645 5.768087 9.875395
v 8.550546 5.768087 9.875395
vt 0.000000 0.000000
vt 1.000000 0.000000
vt 1.000000 1.000000
vt 0.000000 1.000000
vt 0.500000 0.000000
vt 0.500000 1.000000
vt 0.166667 0.000000
vt 0.166667 1.000000
vt 0.333333 0.000000
vt 0.333333 1.000000
vt 0.666667 0.000000
vt 0.666667 1.000000
vt 0.833333 0.000000
vt 0.833333 1.000000
vn 0.000000 0.298476 0.954417
vn 0.000000 0.554020 0.832503
vn 0.000000 0.554021 0.832503
vn 0.000000 0.388507 0.921446
vn 0.000000 -0.640747 0.767752
vn 0.000000 -0.927498 0.373828
vn 0.000000 -0.767089 0.641540
vn 0.000000 -0.888160 0.459534
vn 0.000000 0.000000 1.000000
vn 0.000000 -0.830301 0.557316
vn 0.000000 -0.520392 0.853928
vn 0.000000 0.000000 1.000000
vn 0.000000 -0.953003 0.302961
vn 0.000000 -0.974205 0.225664
g Pillar2 nurbsToPoly12
usemtl initialShadingGroup
f 111/111/99 100/100/100 101/101/101 112/112/102
f 107/107/103 103/103/104 104/104/105 108/108/106
f 99/99/107 105/105/108 106/106/109 102/102/110
f 105/105/108 107/107/103 108/108/106 106/106/109
f 103/103/104 109/109/111 110/110/112 104/104/105
f 109/109/111 111/111/99 112/112/102 110/110/112
g default
v 7.791483 5.230175 9.116333
v 8.523970 5.808020 9.848820
v 8.523970 5.808020 11.393321
v 7.791483 5.230175 10.660834
v 8.087135 5.650639 9.411985
v 8.087135 5.650639 10.956487
v 7.791483 5.446280 9.116333
v 7.791483 5.446280 10.660834
v 8.083814 5.497956 9.408663
v 8.083814 5.497956 10.953164
v 8.550546 5.737551 9.875395
v 8.550546 5.737551 11.419896
v 8.550546 5.768087 9.875395
v 8.550546 5.768087 11.419896
vt 0.000000 0.000000
vt 1.000000 0.000000
vt 1.000000 1.000000
vt 0.000000 1.000000
vt 0.500000 0.000000
vt 0.500000 1.000000
vt 0.166667 0.000000
vt 0.166667 1.000000
vt 0.333333 0.000000
vt 0.333333 1.000000
vt 0.666667 0.000000
vt 0.666667 1.000000
vt 0.833333 0.000000
vt 0.833333 1.000000
vn 0.921440 0.388522 0.000000
vn 0.832488 0.554043 0.000000
vn 0.832488 0.554043 0.000000
vn 0.954413 0.298490 0.000000
vn 0.459532 -0.888161 0.000000
vn 0.641540 -0.767090 0.000000
vn 0.373827 -0.927499 0.000000
vn 0.767753 -0.640746 0.000000
vn 1.000000 0.000000 0.000000
vn 0.853927 -0.520392 0.000000
vn 0.557316 -0.830300 0.000000
vn 1.000000 0.000000 0.000000
vn 0.225664 -0.974205 0.000000
vn 0.302962 -0.953003 0.000000
g Pillar2 nurbsToPoly13
usemtl initialShadingGroup
f 125/125/113 114/114/114 115/115/115 126/126/116
f 121/121/117 117/117/118 118/118/119 122/122/120
f 113/113/121 119/119/122 120/120/123 116/116/124
f 119/119/122 121/121/117 122/122/120 120/120/123
f 117/117/118 123/123/125 124/124/126 118/118/119
f 123/123/125 125/125/113 126/126/116 124/124/126
g default
v 6.488156 5.230175 10.711473
v 5.755670 5.808020 11.443960
v 5.755670 5.808020 9.848820
v 6.488156 5.230175 9.116333
v 6.192504 5.650639 11.007126
v 6.192504 5.650639 9.411985
v 6.488156 5.446280 10.711473
v 6.488156 5.446280 9.116333
v 6.195826 5.497956 11.003804
v 6.195826 5.497956 9.408663
v 5.729095 5.737551 11.470535
v 5.729095 5.737551 9.875395
v 5.729095 5.768087 11.470535
v 5.729095 5.768087 9.875395
vt 0.000000 0.000000
vt 1.000000 0.000000
vt 1.000000 1.000000
vt 0.000000 1.000000
vt 0.500000 0.000000
vt 0.500000 1.000000
vt 0.166667 0.000000
vt 0.166667 1.000000
vt 0.333333 0.000000
vt 0.333333 1.000000
vt 0.666667 0.000000
vt 0.666667 1.000000
vt 0.833333 0.000000
vt 0.833333 1.000000
vn -0.954415 0.298482 0.000000
vn -0.832495 0.554033 0.000000
vn -0.832495 0.554033 0.000000
vn -0.921443 0.388513 0.000000
vn -0.767752 -0.640747 0.000000
vn -0.373828 -0.927498 0.000000
vn -0.641541 -0.767089 0.000000
vn -0.459532 -0.888161 0.000000
vn -1.000000 0.000000 0.000000
vn -0.557316 -0.830301 0.000000
vn -0.853927 -0.520393 0.000000
vn -1.000000 0.000000 0.000000
vn -0.302962 -0.953003 0.000000
vn -0.225665 -0.974205 0.000000
g Pillar2 nurbsToPoly14
usemtl initialShadingGroup
f 139/139/127 128/128/128 129/129/129 140/140/130
f 135/135/131 131/131/132 132/132/133 136/136/134
f 127/127/135 133/133/136 134/134/137 130/130/138
f 133/133/136 135/135/131 136/136/134 134/134/137
f 131/131/132 137/137/139 138/138/140 132/132/133
f 137/137/139 139/139/127 140/140/130 138/138/140
g default
v 6.488156 5.230175 9.116333
v 5.755670 5.808020 9.848820
v 4.185849 5.808020 9.848820
v 4.918335 5.230175 9.116333
v 6.192504 5.650639 9.411985
v 4.622683 5.650639 9.411985
v 6.488156 5.446280 9.116333
v 4.918335 5.446280 9.116333
v 6.195826 5.497956 9.408663
v 4.626005 5.497956 9.408663
v 5.729095 5.737551 9.875395
v 4.159273 5.737551 9.875395
v 5.729095 5.768087 9.875395
v 4.159273 5.768087 9.875395
vt 0.000000 0.000000
vt 1.000000 0.000000
vt 1.000000 1.000000
vt 0.000000 1.000000
vt 0.500000 0.000000
vt 0.500000 1.000000
vt 0.166667 0.000000
vt 0.166667 1.000000
vt 0.333333 0.000000
vt 0.333333 1.000000
vt 0.666667 0.000000
vt 0.666667 1.000000
vt 0.833333 0.000000
vt 0.833333 1.000000
vn 0.000000 0.388505 0.921447
vn 0.000000 0.554022 0.832502
vn 0.000000 0.554022 0.832502
vn 0.000000 0.298475 0.954418
vn 0.000000 -0.888161 0.459533
vn 0.000000 -0.767090 0.641540
vn 0.000000 -0.927498 0.373827
vn 0.000000 -0.640747 0.767752
vn 0.000000 0.000000 1.000000
vn 0.000000 -0.520392 0.853928
vn 0.000000 -0.830301 0.557316
vn 0.000000 0.000000 1.000000
vn 0.000000 -0.974205 0.225664
vn 0.000000 -0.953003 0.302963
g Pillar2 nurbsToPoly15
usemtl initialShadingGroup
f 153/153/141 142/142/142 143/143/143 154/154/144
f 149/149/145 145/145/146 146/146/147 150/150/148
f 141/141/149 147/147/150 148/148/151 144/144/152
f 147/147/150 149/149/145 150/150/148 148/148/151
f 145/145/146 151/151/153 152/152/154 146/146/147
f 151/151/153 153/153/141 154/154/144 152/152/154
g default
v 4.160189 5.808020 7.122627
v 4.892675 5.230175 7.855113
v 4.918335 5.230175 9.116333
v 4.185849 5.808020 9.848820
v 4.597023 5.650639 7.559461
v 4.622683 5.650639 9.411985
v 4.133614 5.768087 7.096051
v 4.159273 5.768087 9.875395
v 4.133614 5.737551 7.096051
v 4.159273 5.737551 9.875395
v 4.600345 5.497956 7.562783
v 4.626005 5.497956 9.408663
v 4.892675 5.446280 7.855113
v 4.918335 5.446280 9.116333
vt 0.000000 0.000000
vt 1.000000 0.000000
vt 1.000000 1.000000
vt 0.000000 1.000000
vt 0.500000 0.000000
vt 0.500000 1.000000
vt 0.166667 0.000000
vt 0.166667 1.000000
vt 0.333333 0.000000
vt 0.333333 1.000000
vt 0.666667 0.000000
vt 0.666667 1.000000
vt 0.833333 0.000000
vt 0.833333 1.000000
vn -0.498311 -0.866946 0.009551
vn -0.999793 0.000000 0.020341
vn -0.999793 0.000000 0.020341
vn -0.502753 -0.864376 0.009644
vn -0.326805 -0.945086 0.003345
vn -0.337683 -0.941250 0.004194
vn -0.339396 -0.940634 0.004218
vn -0.323782 -0.946126 0.003317
vn -0.832470 0.554016 0.007760
vn -0.955025 0.296392 0.008857
vn -0.954594 0.297779 0.008853
vn -0.832470 0.554016 0.007760
vn -0.815314 -0.578903 0.011576
vn -0.807094 -0.590311 0.011468
g Pillar2 nurbsToPoly16
usemtl initialShadingGroup
f 167/167/155 156/156/156 157/157/157 168/168/158
f 163/163/159 159/159/160 160/160/161 164/164/162
f 155/155/163 161/161/164 162/162/165 158/158/166
f 161/161/164 163/163/159 164/164/162 162/162/165
f 159/159/160 165/165/167 166/166/168 160/160/161
f 165/165/167 167/167/155 168/168/158 166/166/168
