# This file uses centimeters as units for non-parametric coordinates.

mtllib moulding1.mtl
g default
v 0.626010 5.230175 9.116333
v 1.358496 5.808020 9.848820
v -5.638193 5.808020 9.848820
v -4.905707 5.230175 9.116333
v 0.921662 5.650639 9.411985
v -5.201359 5.650639 9.411985
v 0.626010 5.446280 9.116333
v -4.905707 5.446280 9.116333
v 0.918340 5.497956 9.408663
v -5.198037 5.497956 9.408663
v 1.385071 5.737551 9.875395
v -5.664769 5.737551 9.875395
v 1.385071 5.768087 9.875395
v -5.664769 5.768087 9.875395
vt 0.000000 0.000000
vt 1.000000 0.000000
vt 1.000000 1.000000
vt 0.000000 1.000000
vt 0.500000 0.000000
vt 0.500000 1.000000
vt 0.166667 0.000000
vt 0.166667 1.000000
vt 0.333333 0.000000
vt 0.333333 1.000000
vt 0.666667 0.000000
vt 0.666667 1.000000
vt 0.833333 0.000000
vt 0.833333 1.000000
vn 0.000000 0.297934 0.954587
vn 0.000000 0.554028 0.832498
vn 0.000000 0.554028 0.832498
vn 0.000000 0.297933 0.954587
vn 0.000000 -0.625046 0.780588
vn 0.000000 -0.932333 0.361602
vn 0.000000 -0.932333 0.361602
vn 0.000000 -0.625046 0.780588
vn 0.000000 0.000000 1.000000
vn 0.000000 -0.839822 0.542862
vn 0.000000 -0.839822 0.542862
vn 0.000000 0.000000 1.000000
vn 0.000000 -0.950453 0.310870
vn 0.000000 -0.950453 0.310870
g nurbsToPoly1
usemtl initialShadingGroup
f 13/13/1 2/2/2 3/3/3 14/14/4
f 9/9/5 5/5/6 6/6/7 10/10/8
f 1/1/9 7/7/10 8/8/11 4/4/12
f 7/7/10 9/9/5 10/10/8 8/8/11
f 5/5/6 11/11/13 12/12/14 6/6/7
f 11/11/13 13/13/1 14/14/4 12/12/14
g default
v 0.626010 5.230175 7.831502
v 1.358496 5.808020 7.099016
v 1.358496 5.808020 9.848820
v 0.626010 5.230175 9.116333
v 0.921662 5.650639 7.535851
v 0.921662 5.650639 9.411985
v 0.626010 5.446280 7.831502
v 0.626010 5.446280 9.116333
v 0.918340 5.497956 7.539173
v 0.918340 5.497956 9.408663
v 1.385071 5.737551 7.072441
v 1.385071 5.737551 9.875395
v 1.385071 5.768087 7.072441
v 1.385071 5.768087 9.875395
vt 0.000000 0.000000
vt 1.000000 0.000000
vt 1.000000 1.000000
vt 0.000000 1.000000
vt 0.500000 0.000000
vt 0.500000 1.000000
vt 0.166667 0.000000
vt 0.166667 1.000000
vt 0.333333 0.000000
vt 0.333333 1.000000
vt 0.666667 0.000000
vt 0.666667 1.000000
vt 0.833333 0.000000
vt 0.833333 1.000000
vn 0.954844 0.297108 0.000000
vn 0.832495 0.554033 0.000000
vn 0.832495 0.554033 0.000000
vn 0.954843 0.297109 0.000000
vn 0.810685 -0.585483 0.000000
vn 0.338902 -0.940822 0.000000
vn 0.338902 -0.940822 0.000000
vn 0.810685 -0.585483 0.000000
vn 1.000000 0.000000 0.000000
vn 0.501443 -0.865191 0.000000
vn 0.501443 -0.865191 0.000000
vn 1.000000 0.000000 0.000000
vn 0.325057 -0.945694 0.000000
vn 0.325057 -0.945694 0.000000
g nurbsToPoly2
usemtl initialShadingGroup
f 27/27/15 16/16/16 17/17/17 28/28/18
f 23/23/19 19/19/20 20/20/21 24/24/22
f 15/15/23 21/21/24 22/22/25 18/18/26
f 21/21/24 23/23/19 24/24/22 22/22/25
f 19/19/20 25/25/27 26/26/28 20/20/21
f 25/25/27 27/27/15 28/28/18 26/26/28
g default
v -4.905707 5.230175 9.116333
v -5.638193 5.808020 9.848820
v -5.638193 5.808020 7.099016
v -4.905707 5.230175 7.831502
v -5.201359 5.650639 9.411985
v -5.201359 5.650639 7.535851
v -4.905707 5.446280 9.116333
v -4.905707 5.446280 7.831502
v -5.198037 5.497956 9.408663
v -5.198037 5.497956 7.539173
v -5.664769 5.737551 9.875395
v -5.664769 5.737551 7.072441
v -5.664769 5.768087 9.875395
v -5.664769 5.768087 7.072441
vt 0.000000 0.000000
vt 1.000000 0.000000
vt 1.000000 1.000000
vt 0.000000 1.000000
vt 0.500000 0.000000
vt 0.500000 1.000000
vt 0.166667 0.000000
vt 0.166667 1.000000
vt 0.333333 0.000000
vt 0.333333 1.000000
vt 0.666667 0.000000
vt 0.666667 1.000000
vt 0.833333 0.000000
vt 0.833333 1.000000
vn -0.954844 0.297109 0.000000
vn -0.832495 0.554033 0.000000
vn -0.832495 0.554033 0.000000
vn -0.954844 0.297108 0.000000
vn -0.810686 -0.585481 0.000000
vn -0.338902 -0.940822 0.000000
vn -0.338902 -0.940822 0.000000
vn -0.810685 -0.585482 0.000000
vn -1.000000 0.000000 0.000000
vn -0.501443 -0.865191 0.000000
vn -0.501443 -0.865191 0.000000
vn -1.000000 0.000000 0.000000
vn -0.325057 -0.945695 0.000000
vn -0.325057 -0.945694 0.000000
g nurbsToPoly3
usemtl initialShadingGroup
f 41/41/29 30/30/30 31/31/31 42/42/32
f 37/37/33 33/33/34 34/34/35 38/38/36
f 29/29/37 35/35/38 36/36/39 32/32/40
f 35/35/38 37/37/33 38/38/36 36/36/39
f 33/33/34 39/39/41 40/40/42 34/34/35
f 39/39/41 41/41/29 42/42/32 40/40/42
g default
v 1.358496 5.808020 7.099016
v 0.626010 5.230175 7.831502
v -4.905707 5.230175 7.831502
v -5.638193 5.808020 7.099016
v 0.921662 5.650639 7.535851
v -5.201359 5.650639 7.535851
v 1.385071 5.768087 7.072441
v -5.664769 5.768087 7.072441
v 1.385071 5.737551 7.072441
v -5.664769 5.737551 7.072441
v 0.918340 5.497956 7.539173
v -5.198037 5.497956 7.539173
v 0.626010 5.446280 7.831502
v -4.905707 5.446280 7.831502
vt 0.000000 0.000000
vt 1.000000 0.000000
vt 1.000000 1.000000
vt 0.000000 1.000000
vt 0.500000 0.000000
vt 0.500000 1.000000
vt 0.166667 0.000000
vt 0.166667 1.000000
vt 0.333333 0.000000
vt 0.333333 1.000000
vt 0.666667 0.000000
vt 0.666667 1.000000
vt 0.833333 0.000000
vt 0.833333 1.000000
vn 0.000000 -0.839821 -0.542864
vn 0.000000 0.000000 -1.000000
vn 0.000000 0.000000 -1.000000
vn 0.000000 -0.839821 -0.542864
vn 0.000000 -0.950453 -0.310870
vn 0.000000 -0.932333 -0.361602
vn 0.000000 -0.932333 -0.361602
vn 0.000000 -0.950453 -0.310870
vn 0.000000 0.554035 -0.832494
vn 0.000000 0.297939 -0.954585
vn 0.000000 0.297939 -0.954585
vn 0.000000 0.554035 -0.832494
vn 0.000000 -0.625044 -0.780590
vn 0.000000 -0.625044 -0.780589
g nurbsToPoly4
usemtl initialShadingGroup
f 55/55/43 44/44/44 45/45/45 56/56/46
f 51/51/47 47/47/48 48/48/49 52/52/50
f 43/43/51 49/49/52 50/50/53 46/46/54
f 49/49/52 51/51/47 52/52/50 50/50/53
f 47/47/48 53/53/55 54/54/56 48/48/49
f 53/53/55 55/55/43 56/56/46 54/54/56
