# This file uses centimeters as units for non-parametric coordinates.

mtllib floor2.mtl
g default
v 12.720810 1.561927 -14.092270
v 24.880169 1.561927 -14.092270
v 10.789327 1.561927 -4.243905
v 26.817751 1.561927 -12.071950
v 26.817751 1.561927 -4.228578
v 10.791605 1.561927 -12.097449
v 10.791605 1.561927 -9.486096
v 10.789327 1.561927 -5.218309
v 20.524990 1.561927 -4.243905
v 24.848249 1.561927 -4.228578
vt 0.664862 0.644918
vt 0.664827 0.579719
vt 0.664827 0.564834
vt 0.813557 0.565351
vt 0.879603 0.564599
vt 0.909691 0.564599
vt 0.909691 0.684421
vt 0.880090 0.715285
vt 0.694334 0.715285
vt 0.664862 0.684811
vn 0.000000 1.000000 0.000000
vn 0.000000 1.000000 0.000000
vn 0.000000 1.000000 0.000000
vn 0.000000 1.000000 0.000000
vn 0.000000 1.000000 0.000000
vn 0.000000 1.000000 0.000000
vn 0.000000 1.000000 0.000000
vn 0.000000 1.000000 0.000000
vn 0.000000 1.000000 0.000000
vn 0.000000 1.000000 0.000000
g polySurface26 floor
usemtl initialShadingGroup
f 7/1/1 8/2/2 3/3/3 9/4/4 10/5/5 5/6/6 4/7/7 2/8/8 1/9/9 6/10/10
