# This file uses centimeters as units for non-parametric coordinates.

mtllib ramp1.mtl
g default
v 10.789327 1.561927 -5.218309
v 10.791605 1.561927 -9.486096
v 5.898454 -0.000000 -9.486096
v 5.898454 -0.000000 -5.218309
vt 0.592742 0.644918
vt 0.590110 0.579719
vt 0.664827 0.579719
vt 0.664862 0.644918
vn -0.304154 0.952623 -0.000081
vn -0.304154 0.952623 -0.000081
vn -0.304155 0.952623 -0.000081
vn -0.304155 0.952623 -0.000081
g polySurface35 Ramp1 floor
usemtl initialShadingGroup
f 3/1/1 4/2/2 1/3/3 2/4/4
