# This file uses centimeters as units for non-parametric coordinates.

mtllib ramp2.mtl
g default
v 20.524990 1.561927 -4.243905
v 24.848249 1.561927 -4.228578
v 20.524990 0.000000 0.731658
v 24.848251 0.000000 0.731658
vt 0.813557 0.565351
vt 0.813557 0.488823
vt 0.879603 0.493042
vt 0.879603 0.565504
vn -0.000532 0.953961 0.299929
vn -0.000532 0.953961 0.299929
vn -0.000532 0.953961 0.299929
vn -0.000532 0.953961 0.299929
g polySurface37 Ramp2 floor
usemtl initialShadingGroup
f 1/1/1 3/2/2 4/3/3 2/4/4
