{
    "asset" : {
        "generator" : "Khronos glTF Blender I/O v1.2.75",
        "version" : "2.0"
    },
    "scene" : 0,
    "scenes" : [
        {
            "name" : "Scene",
            "nodes" : [
                0
            ]
        }
    ],
    "nodes" : [
        {
            "mesh" : 0,
            "name" : "Vital_part2",
            "rotation" : [
                -0.18851840496063232,
                0.8007621765136719,
                -0.5534132122993469,
                -0.13028660416603088
            ],
            "scale" : [
                0.2846609354019165,
                0.2846609354019165,
                0.2846609354019165
            ],
            "translation" : [
                0,
                0.08853904157876968,
                0
            ]
        }
    ],
    "materials" : [
        {
            "doubleSided" : true,
            "emissiveFactor" : [
                1,
                1,
                1
            ],
            "emissiveTexture" : {
                "index" : 0,
                "texCoord" : 0
            },
            "name" : "Vital",
            "normalTexture" : {
                "index" : 1,
                "texCoord" : 0
            },
            "pbrMetallicRoughness" : {
                "baseColorTexture" : {
                    "index" : 2,
                    "texCoord" : 0
                },
                "metallicRoughnessTexture" : {
                    "index" : 3,
                    "texCoord" : 0
                }
            }
        }
    ],
    "meshes" : [
        {
            "name" : "Mesh.012",
            "primitives" : [
                {
                    "attributes" : {
                        "POSITION" : 0,
                        "NORMAL" : 1,
                        "TEXCOORD_0" : 2
                    },
                    "indices" : 3,
                    "material" : 0
                }
            ]
        }
    ],
    "textures" : [
        {
            "source" : 0
        },
        {
            "source" : 1
        },
        {
            "source" : 2
        },
        {
            "source" : 3
        }
    ],
    "images" : [
        {
            "mimeType" : "image/png",
            "name" : "Vital_Vital_Emissive",
            "uri" : "Vital_Vital_Emissive.png"
        },
        {
            "mimeType" : "image/png",
            "name" : "Vital_Vital_Normal",
            "uri" : "Vital_Vital_Normal.png"
        },
        {
            "mimeType" : "image/png",
            "name" : "Vital_Vital_BaseColor-mesh_Vital_alpha",
            "uri" : "Vital_Vital_BaseColor-mesh_Vital_alpha.png"
        },
        {
            "mimeType" : "image/png",
            "name" : "Vital_Vital_Metallic-Vital_Vital_Roughness",
            "uri" : "Vital_Vital_Metallic-Vital_Vital_Roughness.png"
        }
    ],
    "accessors" : [
        {
            "bufferView" : 0,
            "componentType" : 5126,
            "count" : 50,
            "max" : [
                0.3037770390510559,
                0.2038859724998474,
                0.3001507818698883
            ],
            "min" : [
                -0.3037770688533783,
                -0.20388615131378174,
                -0.3001507520675659
            ],
            "type" : "VEC3"
        },
        {
            "bufferView" : 1,
            "componentType" : 5126,
            "count" : 50,
            "type" : "VEC3"
        },
        {
            "bufferView" : 2,
            "componentType" : 5126,
            "count" : 50,
            "type" : "VEC2"
        },
        {
            "bufferView" : 3,
            "componentType" : 5123,
            "count" : 120,
            "type" : "SCALAR"
        }
    ],
    "bufferViews" : [
        {
            "buffer" : 0,
            "byteLength" : 600,
            "byteOffset" : 0
        },
        {
            "buffer" : 0,
            "byteLength" : 600,
            "byteOffset" : 600
        },
        {
            "buffer" : 0,
            "byteLength" : 400,
            "byteOffset" : 1200
        },
        {
            "buffer" : 0,
            "byteLength" : 240,
            "byteOffset" : 1600
        }
    ],
    "buffers" : [
        {
            "byteLength" : 1840,
            "uri" : "Vital_part2.bin"
        }
    ]
}
