{
    "asset" : {
        "generator" : "Khronos glTF Blender I/O v1.2.75",
        "version" : "2.0"
    },
    "scene" : 0,
    "scenes" : [
        {
            "name" : "Scene",
            "nodes" : [
                0,
                1,
                2,
                3,
                4,
                5
            ]
        }
    ],
    "nodes" : [
        {
            "mesh" : 0,
            "name" : "pSphere1",
            "rotation" : [
                0,
                0.7071067690849304,
                -0.7071067690849304,
                -1.152023116901546e-07
            ],
            "scale" : [
                0.2846609354019165,
                0.2846609354019165,
                0.2846609354019165
            ]
        },
        {
            "mesh" : 1,
            "name" : "pCylinder6",
            "rotation" : [
                0,
                0.7071067690849304,
                -0.7071067690849304,
                -1.152023116901546e-07
            ],
            "scale" : [
                0.2846609354019165,
                0.2846609354019165,
                0.2846609354019165
            ]
        },
        {
            "mesh" : 2,
            "name" : "pCylinder7",
            "rotation" : [
                0,
                0.7071067690849304,
                -0.7071067690849304,
                -1.152023116901546e-07
            ],
            "scale" : [
                0.2846609354019165,
                0.2846609354019165,
                0.2846609354019165
            ]
        },
        {
            "mesh" : 3,
            "name" : "pCylinder8",
            "rotation" : [
                0,
                0.7071067690849304,
                -0.7071067690849304,
                -1.152023116901546e-07
            ],
            "scale" : [
                0.2846609354019165,
                0.2846609354019165,
                0.2846609354019165
            ]
        },
        {
            "mesh" : 4,
            "name" : "pCylinder9",
            "rotation" : [
                0,
                0.7071067690849304,
                -0.7071067690849304,
                -1.152023116901546e-07
            ],
            "scale" : [
                0.2846609354019165,
                0.2846609354019165,
                0.2846609354019165
            ]
        },
        {
            "mesh" : 5,
            "name" : "pCylinder10",
            "rotation" : [
                0,
                0.7071067690849304,
                -0.7071067690849304,
                -1.152023116901546e-07
            ],
            "scale" : [
                0.2846609354019165,
                0.2846609354019165,
                0.2846609354019165
            ]
        }
    ],
    "materials" : [
        {
            "doubleSided" : true,
            "emissiveFactor" : [
                1,
                1,
                1
            ],
            "emissiveTexture" : {
                "index" : 0,
                "texCoord" : 0
            },
            "name" : "Vital",
            "normalTexture" : {
                "index" : 1,
                "texCoord" : 0
            },
            "pbrMetallicRoughness" : {
                "baseColorTexture" : {
                    "index" : 2,
                    "texCoord" : 0
                },
                "metallicRoughnessTexture" : {
                    "index" : 3,
                    "texCoord" : 0
                }
            }
        }
    ],
    "meshes" : [
        {
            "name" : "Mesh",
            "primitives" : [
                {
                    "attributes" : {
                        "POSITION" : 0,
                        "NORMAL" : 1,
                        "TEXCOORD_0" : 2
                    },
                    "indices" : 3,
                    "material" : 0
                }
            ]
        },
        {
            "name" : "Mesh.001",
            "primitives" : [
                {
                    "attributes" : {
                        "POSITION" : 4,
                        "NORMAL" : 5,
                        "TEXCOORD_0" : 6
                    },
                    "indices" : 7,
                    "material" : 0
                }
            ]
        },
        {
            "name" : "Mesh.002",
            "primitives" : [
                {
                    "attributes" : {
                        "POSITION" : 8,
                        "NORMAL" : 9,
                        "TEXCOORD_0" : 10
                    },
                    "indices" : 11,
                    "material" : 0
                }
            ]
        },
        {
            "name" : "Mesh.003",
            "primitives" : [
                {
                    "attributes" : {
                        "POSITION" : 12,
                        "NORMAL" : 13,
                        "TEXCOORD_0" : 14
                    },
                    "indices" : 11,
                    "material" : 0
                }
            ]
        },
        {
            "name" : "Mesh.004",
            "primitives" : [
                {
                    "attributes" : {
                        "POSITION" : 15,
                        "NORMAL" : 16,
                        "TEXCOORD_0" : 17
                    },
                    "indices" : 18,
                    "material" : 0
                }
            ]
        },
        {
            "name" : "Mesh.005",
            "primitives" : [
                {
                    "attributes" : {
                        "POSITION" : 19,
                        "NORMAL" : 20,
                        "TEXCOORD_0" : 21
                    },
                    "indices" : 22,
                    "material" : 0
                }
            ]
        }
    ],
    "textures" : [
        {
            "source" : 0
        },
        {
            "source" : 1
        },
        {
            "source" : 2
        },
        {
            "source" : 3
        }
    ],
    "images" : [
        {
            "mimeType" : "image/png",
            "name" : "Vital_Vital_Emissive",
            "uri" : "Vital_Vital_Emissive.png"
        },
        {
            "mimeType" : "image/png",
            "name" : "Vital_Vital_Normal",
            "uri" : "Vital_Vital_Normal.png"
        },
        {
            "mimeType" : "image/png",
            "name" : "Vital_Vital_BaseColor-mesh_Vital_alpha",
            "uri" : "Vital_Vital_BaseColor-mesh_Vital_alpha.png"
        },
        {
            "mimeType" : "image/png",
            "name" : "Vital_Vital_Metallic-Vital_Vital_Roughness",
            "uri" : "Vital_Vital_Metallic-Vital_Vital_Roughness.png"
        }
    ],
    "accessors" : [
        {
            "bufferView" : 0,
            "componentType" : 5126,
            "count" : 187,
            "max" : [
                0.9302948117256165,
                0.866025447845459,
                -0.04297429323196411
            ],
            "min" : [
                -0.9718378186225891,
                -0.8660255074501038,
                -1.847192406654358
            ],
            "type" : "VEC3"
        },
        {
            "bufferView" : 1,
            "componentType" : 5126,
            "count" : 187,
            "type" : "VEC3"
        },
        {
            "bufferView" : 2,
            "componentType" : 5126,
            "count" : 187,
            "type" : "VEC2"
        },
        {
            "bufferView" : 3,
            "componentType" : 5123,
            "count" : 558,
            "type" : "SCALAR"
        },
        {
            "bufferView" : 4,
            "componentType" : 5126,
            "count" : 784,
            "max" : [
                0.9823464155197144,
                1.1200246810913086,
                -0.7547036409378052
            ],
            "min" : [
                -1.0333034992218018,
                0.08532145619392395,
                -1.2949411869049072
            ],
            "type" : "VEC3"
        },
        {
            "bufferView" : 5,
            "componentType" : 5126,
            "count" : 784,
            "type" : "VEC3"
        },
        {
            "bufferView" : 6,
            "componentType" : 5126,
            "count" : 784,
            "type" : "VEC2"
        },
        {
            "bufferView" : 7,
            "componentType" : 5123,
            "count" : 2160,
            "type" : "SCALAR"
        },
        {
            "bufferView" : 8,
            "componentType" : 5126,
            "count" : 30,
            "max" : [
                0.1109381914138794,
                0.014808177947998047,
                -1.8267865180969238
            ],
            "min" : [
                -0.0999518632888794,
                -0.20150530338287354,
                -1.9510612487792969
            ],
            "type" : "VEC3"
        },
        {
            "bufferView" : 9,
            "componentType" : 5126,
            "count" : 30,
            "type" : "VEC3"
        },
        {
            "bufferView" : 10,
            "componentType" : 5126,
            "count" : 30,
            "type" : "VEC2"
        },
        {
            "bufferView" : 11,
            "componentType" : 5123,
            "count" : 63,
            "type" : "SCALAR"
        },
        {
            "bufferView" : 12,
            "componentType" : 5126,
            "count" : 30,
            "max" : [
                -0.3198598623275757,
                -0.012965619564056396,
                -1.7474565505981445
            ],
            "min" : [
                -0.47659504413604736,
                -0.17373156547546387,
                -1.8717315196990967
            ],
            "type" : "VEC3"
        },
        {
            "bufferView" : 13,
            "componentType" : 5126,
            "count" : 30,
            "type" : "VEC3"
        },
        {
            "bufferView" : 14,
            "componentType" : 5126,
            "count" : 30,
            "type" : "VEC2"
        },
        {
            "bufferView" : 15,
            "componentType" : 5126,
            "count" : 50,
            "max" : [
                0.724415123462677,
                0.9644525051116943,
                -0.2967034876346588
            ],
            "min" : [
                0.1168610155582428,
                0.5566803812980652,
                -0.897005021572113
            ],
            "type" : "VEC3"
        },
        {
            "bufferView" : 16,
            "componentType" : 5126,
            "count" : 50,
            "type" : "VEC3"
        },
        {
            "bufferView" : 17,
            "componentType" : 5126,
            "count" : 50,
            "type" : "VEC2"
        },
        {
            "bufferView" : 18,
            "componentType" : 5123,
            "count" : 120,
            "type" : "SCALAR"
        },
        {
            "bufferView" : 19,
            "componentType" : 5126,
            "count" : 50,
            "max" : [
                -0.03484451770782471,
                0.9644524455070496,
                -0.296703577041626
            ],
            "min" : [
                -0.6423988342285156,
                0.5566803812980652,
                -0.8970049619674683
            ],
            "type" : "VEC3"
        },
        {
            "bufferView" : 20,
            "componentType" : 5126,
            "count" : 50,
            "type" : "VEC3"
        },
        {
            "bufferView" : 21,
            "componentType" : 5126,
            "count" : 50,
            "type" : "VEC2"
        },
        {
            "bufferView" : 22,
            "componentType" : 5123,
            "count" : 120,
            "type" : "SCALAR"
        }
    ],
    "bufferViews" : [
        {
            "buffer" : 0,
            "byteLength" : 2244,
            "byteOffset" : 0
        },
        {
            "buffer" : 0,
            "byteLength" : 2244,
            "byteOffset" : 2244
        },
        {
            "buffer" : 0,
            "byteLength" : 1496,
            "byteOffset" : 4488
        },
        {
            "buffer" : 0,
            "byteLength" : 1116,
            "byteOffset" : 5984
        },
        {
            "buffer" : 0,
            "byteLength" : 9408,
            "byteOffset" : 7100
        },
        {
            "buffer" : 0,
            "byteLength" : 9408,
            "byteOffset" : 16508
        },
        {
            "buffer" : 0,
            "byteLength" : 6272,
            "byteOffset" : 25916
        },
        {
            "buffer" : 0,
            "byteLength" : 4320,
            "byteOffset" : 32188
        },
        {
            "buffer" : 0,
            "byteLength" : 360,
            "byteOffset" : 36508
        },
        {
            "buffer" : 0,
            "byteLength" : 360,
            "byteOffset" : 36868
        },
        {
            "buffer" : 0,
            "byteLength" : 240,
            "byteOffset" : 37228
        },
        {
            "buffer" : 0,
            "byteLength" : 126,
            "byteOffset" : 37468
        },
        {
            "buffer" : 0,
            "byteLength" : 360,
            "byteOffset" : 37596
        },
        {
            "buffer" : 0,
            "byteLength" : 360,
            "byteOffset" : 37956
        },
        {
            "buffer" : 0,
            "byteLength" : 240,
            "byteOffset" : 38316
        },
        {
            "buffer" : 0,
            "byteLength" : 600,
            "byteOffset" : 38556
        },
        {
            "buffer" : 0,
            "byteLength" : 600,
            "byteOffset" : 39156
        },
        {
            "buffer" : 0,
            "byteLength" : 400,
            "byteOffset" : 39756
        },
        {
            "buffer" : 0,
            "byteLength" : 240,
            "byteOffset" : 40156
        },
        {
            "buffer" : 0,
            "byteLength" : 600,
            "byteOffset" : 40396
        },
        {
            "buffer" : 0,
            "byteLength" : 600,
            "byteOffset" : 40996
        },
        {
            "buffer" : 0,
            "byteLength" : 400,
            "byteOffset" : 41596
        },
        {
            "buffer" : 0,
            "byteLength" : 240,
            "byteOffset" : 41996
        }
    ],
    "buffers" : [
        {
            "byteLength" : 42236,
            "uri" : "Vital.bin"
        }
    ]
}
