{
    "asset" : {
        "generator" : "Khronos glTF Blender I/O v1.2.75",
        "version" : "2.0"
    },
    "scene" : 0,
    "scenes" : [
        {
            "name" : "Scene",
            "nodes" : [
                0
            ]
        }
    ],
    "nodes" : [
        {
            "mesh" : 0,
            "name" : "Vital_part3",
            "rotation" : [
                0,
                0.7011890411376953,
                -0.7129753828048706,
                -1.9976255316578317e-07
            ],
            "scale" : [
                0.2846609354019165,
                0.2846609354019165,
                0.2846609354019165
            ],
            "translation" : [
                0,
                0.05518877133727074,
                0
            ]
        }
    ],
    "materials" : [
        {
            "doubleSided" : true,
            "emissiveFactor" : [
                1,
                1,
                1
            ],
            "emissiveTexture" : {
                "index" : 0,
                "texCoord" : 0
            },
            "name" : "Vital",
            "normalTexture" : {
                "index" : 1,
                "texCoord" : 0
            },
            "pbrMetallicRoughness" : {
                "baseColorTexture" : {
                    "index" : 2,
                    "texCoord" : 0
                },
                "metallicRoughnessTexture" : {
                    "index" : 3,
                    "texCoord" : 0
                }
            }
        }
    ],
    "meshes" : [
        {
            "name" : "Mesh.009",
            "primitives" : [
                {
                    "attributes" : {
                        "POSITION" : 0,
                        "NORMAL" : 1,
                        "TEXCOORD_0" : 2
                    },
                    "indices" : 3,
                    "material" : 0
                }
            ]
        }
    ],
    "textures" : [
        {
            "source" : 0
        },
        {
            "source" : 1
        },
        {
            "source" : 2
        },
        {
            "source" : 3
        }
    ],
    "images" : [
        {
            "mimeType" : "image/png",
            "name" : "Vital_Vital_Emissive",
            "uri" : "Vital_Vital_Emissive.png"
        },
        {
            "mimeType" : "image/png",
            "name" : "Vital_Vital_Normal",
            "uri" : "Vital_Vital_Normal.png"
        },
        {
            "mimeType" : "image/png",
            "name" : "Vital_Vital_BaseColor-mesh_Vital_alpha",
            "uri" : "Vital_Vital_BaseColor-mesh_Vital_alpha.png"
        },
        {
            "mimeType" : "image/png",
            "name" : "Vital_Vital_Metallic-Vital_Vital_Roughness",
            "uri" : "Vital_Vital_Metallic-Vital_Vital_Roughness.png"
        }
    ],
    "accessors" : [
        {
            "bufferView" : 0,
            "componentType" : 5126,
            "count" : 784,
            "max" : [
                1.0078253746032715,
                0.4641878008842468,
                0.20330220460891724
            ],
            "min" : [
                -1.0078245401382446,
                -0.5705153942108154,
                -0.3369353413581848
            ],
            "type" : "VEC3"
        },
        {
            "bufferView" : 1,
            "componentType" : 5126,
            "count" : 784,
            "type" : "VEC3"
        },
        {
            "bufferView" : 2,
            "componentType" : 5126,
            "count" : 784,
            "type" : "VEC2"
        },
        {
            "bufferView" : 3,
            "componentType" : 5123,
            "count" : 2160,
            "type" : "SCALAR"
        }
    ],
    "bufferViews" : [
        {
            "buffer" : 0,
            "byteLength" : 9408,
            "byteOffset" : 0
        },
        {
            "buffer" : 0,
            "byteLength" : 9408,
            "byteOffset" : 9408
        },
        {
            "buffer" : 0,
            "byteLength" : 6272,
            "byteOffset" : 18816
        },
        {
            "buffer" : 0,
            "byteLength" : 4320,
            "byteOffset" : 25088
        }
    ],
    "buffers" : [
        {
            "byteLength" : 29408,
            "uri" : "Vital_part3.bin"
        }
    ]
}
