{
    "asset" : {
        "generator" : "Khronos glTF Blender I/O v1.2.75",
        "version" : "2.0"
    },
    "scene" : 0,
    "scenes" : [
        {
            "name" : "Scene",
            "nodes" : [
                0
            ]
        }
    ],
    "nodes" : [
        {
            "mesh" : 0,
            "name" : "player_head",
            "rotation" : [
                0.7071068286895752,
                0,
                0,
                0.7071067094802856
            ]
        }
    ],
    "materials" : [
        {
            "doubleSided" : true,
            "emissiveFactor" : [
                0,
                0,
                0
            ],
            "name" : "lambert1",
            "normalTexture" : {
                "index" : 0,
                "texCoord" : 0
            },
            "pbrMetallicRoughness" : {
                "baseColorTexture" : {
                    "index" : 1,
                    "texCoord" : 0
                },
                "metallicRoughnessTexture" : {
                    "index" : 2,
                    "texCoord" : 0
                }
            }
        }
    ],
    "meshes" : [
        {
            "name" : "Mesh.003",
            "primitives" : [
                {
                    "attributes" : {
                        "POSITION" : 0,
                        "NORMAL" : 1,
                        "TEXCOORD_0" : 2
                    },
                    "indices" : 3,
                    "material" : 0
                }
            ]
        }
    ],
    "textures" : [
        {
            "source" : 0
        },
        {
            "source" : 1
        },
        {
            "source" : 2
        }
    ],
    "images" : [
        {
            "mimeType" : "image/png",
            "name" : "PlayerCombined_lambert2_Normal",
            "uri" : "PlayerCombined_lambert2_Normal.png"
        },
        {
            "mimeType" : "image/png",
            "name" : "PlayerCombined_lambert2_BaseColor",
            "uri" : "PlayerCombined_lambert2_BaseColor.png"
        },
        {
            "mimeType" : "image/png",
            "name" : "PlayerCombined_lambert2_Metallic-PlayerCombined_lambert2_Roughness",
            "uri" : "PlayerCombined_lambert2_Metallic-PlayerCombined_lambert2_Roughness.png"
        }
    ],
    "accessors" : [
        {
            "bufferView" : 0,
            "componentType" : 5126,
            "count" : 2991,
            "max" : [
                0.40501248836517334,
                0.17777779698371887,
                -3.1318671703338623
            ],
            "min" : [
                -0.4050121009349823,
                -0.17777779698371887,
                -3.94189190864563
            ],
            "type" : "VEC3"
        },
        {
            "bufferView" : 1,
            "componentType" : 5126,
            "count" : 2991,
            "type" : "VEC3"
        },
        {
            "bufferView" : 2,
            "componentType" : 5126,
            "count" : 2991,
            "type" : "VEC2"
        },
        {
            "bufferView" : 3,
            "componentType" : 5123,
            "count" : 16128,
            "type" : "SCALAR"
        }
    ],
    "bufferViews" : [
        {
            "buffer" : 0,
            "byteLength" : 35892,
            "byteOffset" : 0
        },
        {
            "buffer" : 0,
            "byteLength" : 35892,
            "byteOffset" : 35892
        },
        {
            "buffer" : 0,
            "byteLength" : 23928,
            "byteOffset" : 71784
        },
        {
            "buffer" : 0,
            "byteLength" : 32256,
            "byteOffset" : 95712
        }
    ],
    "buffers" : [
        {
            "byteLength" : 127968,
            "uri" : "Player_head.bin"
        }
    ]
}
