{
    "asset" : {
        "generator" : "Khronos glTF Blender I/O v1.2.75",
        "version" : "2.0"
    },
    "scene" : 0,
    "scenes" : [
        {
            "name" : "Scene",
            "nodes" : [
                0
            ]
        }
    ],
    "nodes" : [
        {
            "mesh" : 0,
            "name" : "Sensorama",
            "rotation" : [
                -0.5000001788139343,
                0.49999985098838806,
                -0.49999991059303284,
                -0.5000000596046448
            ],
            "scale" : [
                0.7218431830406189,
                0.7218431830406189,
                0.7218431830406189
            ]
        }
    ],
    "materials" : [
        {
            "doubleSided" : true,
            "emissiveFactor" : [
                0,
                0,
                0
            ],
            "name" : "Sensorama",
            "normalTexture" : {
                "index" : 0,
                "texCoord" : 0
            },
            "pbrMetallicRoughness" : {
                "baseColorTexture" : {
                    "index" : 1,
                    "texCoord" : 0
                },
                "metallicRoughnessTexture" : {
                    "index" : 2,
                    "texCoord" : 0
                }
            }
        }
    ],
    "meshes" : [
        {
            "name" : "Mesh",
            "primitives" : [
                {
                    "attributes" : {
                        "POSITION" : 0,
                        "NORMAL" : 1,
                        "TEXCOORD_0" : 2
                    },
                    "indices" : 3,
                    "material" : 0
                }
            ]
        }
    ],
    "textures" : [
        {
            "source" : 0
        },
        {
            "source" : 1
        },
        {
            "source" : 2
        }
    ],
    "images" : [
        {
            "mimeType" : "image/png",
            "name" : "Sensorama_Normal",
            "uri" : "Sensorama_Normal.png"
        },
        {
            "mimeType" : "image/png",
            "name" : "Sensorama_BaseColor",
            "uri" : "Sensorama_BaseColor.png"
        },
        {
            "mimeType" : "image/png",
            "name" : "Sensorama_Metallic-Sensorama_Roughness",
            "uri" : "Sensorama_Metallic-Sensorama_Roughness.png"
        }
    ],
    "accessors" : [
        {
            "bufferView" : 0,
            "componentType" : 5126,
            "count" : 1819,
            "max" : [
                1.2386369705200195,
                2.964139938354492,
                -0.023940784856677055
            ],
            "min" : [
                -1.2000231742858887,
                -2.5458998680114746,
                -6.02382230758667
            ],
            "type" : "VEC3"
        },
        {
            "bufferView" : 1,
            "componentType" : 5126,
            "count" : 1819,
            "type" : "VEC3"
        },
        {
            "bufferView" : 2,
            "componentType" : 5126,
            "count" : 1819,
            "type" : "VEC2"
        },
        {
            "bufferView" : 3,
            "componentType" : 5123,
            "count" : 4950,
            "type" : "SCALAR"
        }
    ],
    "bufferViews" : [
        {
            "buffer" : 0,
            "byteLength" : 21828,
            "byteOffset" : 0
        },
        {
            "buffer" : 0,
            "byteLength" : 21828,
            "byteOffset" : 21828
        },
        {
            "buffer" : 0,
            "byteLength" : 14552,
            "byteOffset" : 43656
        },
        {
            "buffer" : 0,
            "byteLength" : 9900,
            "byteOffset" : 58208
        }
    ],
    "buffers" : [
        {
            "byteLength" : 68108,
            "uri" : "Sensorama.bin"
        }
    ]
}
