{
    "asset" : {
        "generator" : "Khronos glTF Blender I/O v1.2.75",
        "version" : "2.0"
    },
    "scene" : 0,
    "scenes" : [
        {
            "name" : "Scene",
            "nodes" : [
                0
            ]
        }
    ],
    "nodes" : [
        {
            "mesh" : 0,
            "name" : "VPL",
            "rotation" : [
                0,
                0.7071067094802856,
                -0.7071068286895752,
                -1.1520230458472724e-07
            ],
            "scale" : [
                0.2743023633956909,
                0.2743023633956909,
                0.2743023633956909
            ]
        }
    ],
    "materials" : [
        {
            "doubleSided" : true,
            "emissiveFactor" : [
                0,
                0,
                0
            ],
            "name" : "VPL",
            "normalTexture" : {
                "index" : 0,
                "texCoord" : 0
            },
            "pbrMetallicRoughness" : {
                "baseColorTexture" : {
                    "index" : 1,
                    "texCoord" : 0
                },
                "metallicRoughnessTexture" : {
                    "index" : 2,
                    "texCoord" : 0
                }
            }
        }
    ],
    "meshes" : [
        {
            "name" : "Mesh",
            "primitives" : [
                {
                    "attributes" : {
                        "POSITION" : 0,
                        "NORMAL" : 1,
                        "TEXCOORD_0" : 2
                    },
                    "indices" : 3,
                    "material" : 0
                }
            ]
        }
    ],
    "textures" : [
        {
            "source" : 0
        },
        {
            "source" : 1
        },
        {
            "source" : 2
        }
    ],
    "images" : [
        {
            "mimeType" : "image/png",
            "name" : "VPL_VPL_Normal",
            "uri" : "VPL_VPL_Normal.png"
        },
        {
            "mimeType" : "image/png",
            "name" : "VPL_VPL_BaseColor",
            "uri" : "VPL_VPL_BaseColor.png"
        },
        {
            "mimeType" : "image/png",
            "name" : "VPL_VPL_Metallic-VPL_VPL_Roughness",
            "uri" : "VPL_VPL_Metallic-VPL_VPL_Roughness.png"
        }
    ],
    "accessors" : [
        {
            "bufferView" : 0,
            "componentType" : 5126,
            "count" : 414,
            "max" : [
                0.9959201812744141,
                1.4320791959762573,
                -0.04957699775695801
            ],
            "min" : [
                -1.039860725402832,
                -1.0344464778900146,
                -1.4609817266464233
            ],
            "type" : "VEC3"
        },
        {
            "bufferView" : 1,
            "componentType" : 5126,
            "count" : 414,
            "type" : "VEC3"
        },
        {
            "bufferView" : 2,
            "componentType" : 5126,
            "count" : 414,
            "type" : "VEC2"
        },
        {
            "bufferView" : 3,
            "componentType" : 5123,
            "count" : 1428,
            "type" : "SCALAR"
        }
    ],
    "bufferViews" : [
        {
            "buffer" : 0,
            "byteLength" : 4968,
            "byteOffset" : 0
        },
        {
            "buffer" : 0,
            "byteLength" : 4968,
            "byteOffset" : 4968
        },
        {
            "buffer" : 0,
            "byteLength" : 3312,
            "byteOffset" : 9936
        },
        {
            "buffer" : 0,
            "byteLength" : 2856,
            "byteOffset" : 13248
        }
    ],
    "buffers" : [
        {
            "byteLength" : 16104,
            "uri" : "VPL.bin"
        }
    ]
}
