{
    "asset" : {
        "generator" : "Khronos glTF Blender I/O v1.2.75",
        "version" : "2.0"
    },
    "scene" : 0,
    "scenes" : [
        {
            "name" : "Scene",
            "nodes" : [
                0
            ]
        }
    ],
    "nodes" : [
        {
            "mesh" : 0,
            "name" : "pCube2.001",
            "rotation" : [
                0.5,
                0.4999999701976776,
                -0.5000000596046448,
                0.4999999403953552
            ],
            "scale" : [
                0.5363742709159851,
                0.5363742709159851,
                0.5363742709159851
            ]
        }
    ],
    "materials" : [
        {
            "doubleSided" : true,
            "emissiveFactor" : [
                0,
                0,
                0
            ],
            "name" : "lambert1.003",
            "normalTexture" : {
                "index" : 0,
                "texCoord" : 0
            },
            "pbrMetallicRoughness" : {
                "baseColorTexture" : {
                    "index" : 1,
                    "texCoord" : 0
                },
                "metallicRoughnessTexture" : {
                    "index" : 2,
                    "texCoord" : 0
                }
            }
        }
    ],
    "meshes" : [
        {
            "name" : "Mesh.001",
            "primitives" : [
                {
                    "attributes" : {
                        "POSITION" : 0,
                        "NORMAL" : 1,
                        "TEXCOORD_0" : 2
                    },
                    "indices" : 3,
                    "material" : 0
                }
            ]
        }
    ],
    "textures" : [
        {
            "source" : 0
        },
        {
            "source" : 1
        },
        {
            "source" : 2
        }
    ],
    "images" : [
        {
            "mimeType" : "image/png",
            "name" : "Bench_Normal",
            "uri" : "Bench_Normal.png"
        },
        {
            "mimeType" : "image/png",
            "name" : "Bench_BaseColour",
            "uri" : "Bench_BaseColour.png"
        },
        {
            "mimeType" : "image/png",
            "name" : "Bench_Metallic-Bench_Roughness",
            "uri" : "Bench_Metallic-Bench_Roughness.png"
        }
    ],
    "accessors" : [
        {
            "bufferView" : 0,
            "componentType" : 5126,
            "count" : 592,
            "max" : [
                3.7714381217956543,
                1.1184958219528198,
                -0.003946959972381592
            ],
            "min" : [
                -3.771331548690796,
                -1.1012383699417114,
                -1.7659828662872314
            ],
            "type" : "VEC3"
        },
        {
            "bufferView" : 1,
            "componentType" : 5126,
            "count" : 592,
            "type" : "VEC3"
        },
        {
            "bufferView" : 2,
            "componentType" : 5126,
            "count" : 592,
            "type" : "VEC2"
        },
        {
            "bufferView" : 3,
            "componentType" : 5123,
            "count" : 1452,
            "type" : "SCALAR"
        }
    ],
    "bufferViews" : [
        {
            "buffer" : 0,
            "byteLength" : 7104,
            "byteOffset" : 0
        },
        {
            "buffer" : 0,
            "byteLength" : 7104,
            "byteOffset" : 7104
        },
        {
            "buffer" : 0,
            "byteLength" : 4736,
            "byteOffset" : 14208
        },
        {
            "buffer" : 0,
            "byteLength" : 2904,
            "byteOffset" : 18944
        }
    ],
    "buffers" : [
        {
            "byteLength" : 21848,
            "uri" : "Bench2.bin"
        }
    ]
}
