{
    "asset" : {
        "generator" : "Khronos glTF Blender I/O v1.2.75",
        "version" : "2.0"
    },
    "scene" : 0,
    "scenes" : [
        {
            "name" : "Scene",
            "nodes" : [
                0,
                1,
                2,
                3
            ]
        }
    ],
    "nodes" : [
        {
            "mesh" : 0,
            "name" : "Base",
            "rotation" : [
                0.7071068286895752,
                0,
                0,
                0.7071067094802856
            ]
        },
        {
            "mesh" : 1,
            "name" : "PartLeft",
            "rotation" : [
                0.7071068286895752,
                0,
                0,
                0.7071067094802856
            ]
        },
        {
            "mesh" : 2,
            "name" : "PartMiddle",
            "rotation" : [
                0.7071068286895752,
                0,
                0,
                0.7071067094802856
            ]
        },
        {
            "mesh" : 3,
            "name" : "PartRight",
            "rotation" : [
                0.7071068286895752,
                0,
                0,
                0.7071067094802856
            ]
        }
    ],
    "materials" : [
        {
            "doubleSided" : true,
            "emissiveFactor" : [
                0,
                0,
                0
            ],
            "name" : "Stereoscope",
            "normalTexture" : {
                "index" : 0,
                "texCoord" : 0
            },
            "pbrMetallicRoughness" : {
                "baseColorTexture" : {
                    "index" : 1,
                    "texCoord" : 0
                },
                "metallicRoughnessTexture" : {
                    "index" : 2,
                    "texCoord" : 0
                }
            }
        }
    ],
    "meshes" : [
        {
            "name" : "Mesh",
            "primitives" : [
                {
                    "attributes" : {
                        "POSITION" : 0,
                        "NORMAL" : 1,
                        "TEXCOORD_0" : 2
                    },
                    "indices" : 3,
                    "material" : 0
                }
            ]
        },
        {
            "name" : "Mesh.001",
            "primitives" : [
                {
                    "attributes" : {
                        "POSITION" : 4,
                        "NORMAL" : 5,
                        "TEXCOORD_0" : 6
                    },
                    "indices" : 7,
                    "material" : 0
                }
            ]
        },
        {
            "name" : "Mesh.002",
            "primitives" : [
                {
                    "attributes" : {
                        "POSITION" : 8,
                        "NORMAL" : 9,
                        "TEXCOORD_0" : 10
                    },
                    "indices" : 11,
                    "material" : 0
                }
            ]
        },
        {
            "name" : "Mesh.003",
            "primitives" : [
                {
                    "attributes" : {
                        "POSITION" : 12,
                        "NORMAL" : 13,
                        "TEXCOORD_0" : 14
                    },
                    "indices" : 15,
                    "material" : 0
                }
            ]
        }
    ],
    "textures" : [
        {
            "source" : 0
        },
        {
            "source" : 1
        },
        {
            "source" : 2
        }
    ],
    "images" : [
        {
            "mimeType" : "image/png",
            "name" : "Stereoscope_lambert1_Normal",
            "uri" : "Stereoscope_lambert1_Normal.png"
        },
        {
            "mimeType" : "image/png",
            "name" : "Stereoscope_lambert1_BaseColor",
            "uri" : "Stereoscope_lambert1_BaseColor.png"
        },
        {
            "mimeType" : "image/png",
            "name" : "Stereoscope_lambert1_Metallic-Stereoscope_lambert1_Roughness",
            "uri" : "Stereoscope_lambert1_Metallic-Stereoscope_lambert1_Roughness.png"
        }
    ],
    "accessors" : [
        {
            "bufferView" : 0,
            "componentType" : 5126,
            "count" : 24,
            "max" : [
                1.1446986198425293,
                0.7239230275154114,
                -0.006926625967025757
            ],
            "min" : [
                -1.1446986198425293,
                -0.7239230275154114,
                -0.2549944818019867
            ],
            "type" : "VEC3"
        },
        {
            "bufferView" : 1,
            "componentType" : 5126,
            "count" : 24,
            "type" : "VEC3"
        },
        {
            "bufferView" : 2,
            "componentType" : 5126,
            "count" : 24,
            "type" : "VEC2"
        },
        {
            "bufferView" : 3,
            "componentType" : 5123,
            "count" : 36,
            "type" : "SCALAR"
        },
        {
            "bufferView" : 4,
            "componentType" : 5126,
            "count" : 90,
            "max" : [
                -0.7229436039924622,
                0.6343547701835632,
                -0.2539321780204773
            ],
            "min" : [
                -0.9795976877212524,
                -0.6413723826408386,
                -1.1042604446411133
            ],
            "type" : "VEC3"
        },
        {
            "bufferView" : 5,
            "componentType" : 5126,
            "count" : 90,
            "type" : "VEC3"
        },
        {
            "bufferView" : 6,
            "componentType" : 5126,
            "count" : 90,
            "type" : "VEC2"
        },
        {
            "bufferView" : 7,
            "componentType" : 5123,
            "count" : 174,
            "type" : "SCALAR"
        },
        {
            "bufferView" : 8,
            "componentType" : 5126,
            "count" : 150,
            "max" : [
                0.2414461374282837,
                0.6389638781547546,
                -0.25056684017181396
            ],
            "min" : [
                -0.2414461374282837,
                -0.6389638781547546,
                -0.9912525415420532
            ],
            "type" : "VEC3"
        },
        {
            "bufferView" : 9,
            "componentType" : 5126,
            "count" : 150,
            "type" : "VEC3"
        },
        {
            "bufferView" : 10,
            "componentType" : 5126,
            "count" : 150,
            "type" : "VEC2"
        },
        {
            "bufferView" : 11,
            "componentType" : 5123,
            "count" : 222,
            "type" : "SCALAR"
        },
        {
            "bufferView" : 12,
            "componentType" : 5126,
            "count" : 90,
            "max" : [
                0.9838874340057373,
                0.6343547701835632,
                -0.2539321780204773
            ],
            "min" : [
                0.7272331714630127,
                -0.6413723826408386,
                -1.1042604446411133
            ],
            "type" : "VEC3"
        },
        {
            "bufferView" : 13,
            "componentType" : 5126,
            "count" : 90,
            "type" : "VEC3"
        },
        {
            "bufferView" : 14,
            "componentType" : 5126,
            "count" : 90,
            "type" : "VEC2"
        },
        {
            "bufferView" : 15,
            "componentType" : 5123,
            "count" : 174,
            "type" : "SCALAR"
        }
    ],
    "bufferViews" : [
        {
            "buffer" : 0,
            "byteLength" : 288,
            "byteOffset" : 0
        },
        {
            "buffer" : 0,
            "byteLength" : 288,
            "byteOffset" : 288
        },
        {
            "buffer" : 0,
            "byteLength" : 192,
            "byteOffset" : 576
        },
        {
            "buffer" : 0,
            "byteLength" : 72,
            "byteOffset" : 768
        },
        {
            "buffer" : 0,
            "byteLength" : 1080,
            "byteOffset" : 840
        },
        {
            "buffer" : 0,
            "byteLength" : 1080,
            "byteOffset" : 1920
        },
        {
            "buffer" : 0,
            "byteLength" : 720,
            "byteOffset" : 3000
        },
        {
            "buffer" : 0,
            "byteLength" : 348,
            "byteOffset" : 3720
        },
        {
            "buffer" : 0,
            "byteLength" : 1800,
            "byteOffset" : 4068
        },
        {
            "buffer" : 0,
            "byteLength" : 1800,
            "byteOffset" : 5868
        },
        {
            "buffer" : 0,
            "byteLength" : 1200,
            "byteOffset" : 7668
        },
        {
            "buffer" : 0,
            "byteLength" : 444,
            "byteOffset" : 8868
        },
        {
            "buffer" : 0,
            "byteLength" : 1080,
            "byteOffset" : 9312
        },
        {
            "buffer" : 0,
            "byteLength" : 1080,
            "byteOffset" : 10392
        },
        {
            "buffer" : 0,
            "byteLength" : 720,
            "byteOffset" : 11472
        },
        {
            "buffer" : 0,
            "byteLength" : 348,
            "byteOffset" : 12192
        }
    ],
    "buffers" : [
        {
            "byteLength" : 12540,
            "uri" : "Stereopsis.bin"
        }
    ]
}
